<svg width="8" height="14" viewBox="0 0 8 14" fill="none" xmlns="http://www.w3.org/2000/svg">
<path d="M7.54071 6.28955L1.88071 0.639549C1.78775 0.54582 1.67715 0.471426 1.55529 0.420657C1.43343 0.369889 1.30273 0.34375 1.17071 0.34375C1.0387 0.34375 0.907997 0.369889 0.786138 0.420657C0.664278 0.471426 0.553677 0.54582 0.460714 0.639548C0.274463 0.826911 0.169922 1.08036 0.169922 1.34455C0.169922 1.60873 0.274463 1.86219 0.460714 2.04955L5.41071 7.04955L0.460712 11.9995C0.274461 12.1869 0.16992 12.4404 0.16992 12.7045C0.16992 12.9687 0.274461 13.2222 0.460712 13.4095C0.553327 13.504 0.663772 13.5792 0.785647 13.6307C0.907522 13.6822 1.0384 13.709 1.17071 13.7095C1.30302 13.709 1.4339 13.6822 1.55578 13.6307C1.67765 13.5792 1.7881 13.504 1.88071 13.4095L7.54071 7.75955C7.64222 7.66591 7.72323 7.55226 7.77863 7.42576C7.83404 7.29926 7.86265 7.16265 7.86265 7.02455C7.86265 6.88645 7.83404 6.74984 7.77863 6.62334C7.72323 6.49684 7.64222 6.38319 7.54071 6.28955Z" fill="#767FAD"/>
</svg>
